<svg width="25" height="25" viewBox="0 0 25 25" fill="none" xmlns="http://www.w3.org/2000/svg">
<path fill-rule="evenodd" clip-rule="evenodd" d="M10.9954 3.71864L5.71558 3.71558V21.7155H19.7156L19.7147 12.4372C19.7147 12.2165 19.6956 11.9961 19.6592 11.7784C19.2953 9.59943 18.234 8.12801 16.055 8.4919L14.7156 8.71558L14.9393 7.37616C14.9756 7.15842 14.9939 6.93804 14.9939 6.71729C14.9939 4.50815 13.2046 3.71864 10.9954 3.71864ZM8.46558 7.71577C8.46558 7.30156 8.80136 6.96577 9.21558 6.96577H11.7156C12.1298 6.96577 12.4656 7.30156 12.4656 7.71577C12.4656 8.12998 12.1298 8.46577 11.7156 8.46577H9.21558C8.80136 8.46577 8.46558 8.12998 8.46558 7.71577ZM8.46558 11.7157C8.46558 11.3015 8.80136 10.9657 9.21558 10.9657H16.2156C16.6298 10.9657 16.9656 11.3015 16.9656 11.7157C16.9656 12.1299 16.6298 12.4657 16.2156 12.4657H9.21558C8.80136 12.4657 8.46558 12.1299 8.46558 11.7157ZM8.46558 14.7157C8.46558 14.3015 8.80136 13.9657 9.21558 13.9657H16.2156C16.6298 13.9657 16.9656 14.3015 16.9656 14.7157C16.9656 15.1299 16.6298 15.4657 16.2156 15.4657H9.21558C8.80136 15.4657 8.46558 15.1299 8.46558 14.7157ZM8.46558 17.7157C8.46558 17.3015 8.80136 16.9657 9.21558 16.9657H16.2156C16.6298 16.9657 16.9656 17.3015 16.9656 17.7157C16.9656 18.1299 16.6298 18.4657 16.2156 18.4657H9.21558C8.80136 18.4657 8.46558 18.1299 8.46558 17.7157ZM14.9656 3.96643C17.2256 4.72629 18.7953 6.3721 19.4583 8.68765C19.318 8.47859 19.1593 8.28068 18.98 8.09782C18.2654 7.36913 17.3453 7.00164 16.3096 6.99708V6.99283C16.3096 5.71596 15.8222 4.67759 14.9656 3.96643Z" fill="black"/>
</svg>
