<svg width="42" height="30" viewBox="0 0 42 30" fill="none" xmlns="http://www.w3.org/2000/svg">
<path d="M7.95437 13.9634H6.55984V15.3567H7.95437V13.9634ZM7.95437 7.67675V6.28344H6.55984V7.67675H7.95437ZM7.95437 27.6067V29H9.34889V27.6067H7.95437ZM1.39453 27.6067H0V29H1.39453V27.6067ZM1.39453 2.39331V1H0V2.39331H1.39453ZM18.3296 4.60032L17.3509 5.59294L17.3583 5.60013L18.3296 4.60032ZM18.3296 17.0398L17.3583 16.04L17.3509 16.0472L18.3296 17.0398ZM7.95437 19.2468V17.8535H6.55984V19.2468H7.95437ZM7.95437 15.3567H10.1298V12.5701H7.95437V15.3567ZM10.1298 15.3567C11.5058 15.3567 12.7982 15.0617 13.7563 14.2285C14.7514 13.3631 15.1389 12.1369 15.1389 10.8201H12.3499C12.3499 11.5988 12.135 11.9442 11.9252 12.1266C11.6785 12.3411 11.1636 12.5701 10.1298 12.5701V15.3567ZM15.1389 10.8201C15.1389 9.50324 14.7514 8.27699 13.7563 7.4116C12.7982 6.57842 11.5058 6.28344 10.1298 6.28344V9.07006C11.1636 9.07006 11.6785 9.29899 11.9252 9.51356C12.135 9.69594 12.3499 10.0413 12.3499 10.8201H15.1389ZM10.1298 6.28344H7.95437V9.07006H10.1298V6.28344ZM6.55984 7.67675V13.9634H9.34889V7.67675H6.55984ZM7.95437 26.2134H1.39453V29H7.95437V26.2134ZM2.78905 27.6067V2.39331H0V27.6067H2.78905ZM1.39453 3.78662H11.8367V1H1.39453V3.78662ZM11.8367 3.78662C14.4358 3.78662 16.1978 4.45791 17.3509 5.59294L19.3083 3.60772C17.4717 1.80008 14.9049 1 11.8367 1V3.78662ZM17.3583 5.60013C18.5374 6.74337 19.211 8.41562 19.211 10.8201H22C22 7.87418 21.1565 5.39988 19.3009 3.60051L17.3583 5.60013ZM19.211 10.8201C19.211 13.2245 18.5374 14.8968 17.3583 16.04L19.3009 18.0397C21.1565 16.2402 22 13.7659 22 10.8201H19.211ZM17.3509 16.0472C16.1978 17.1822 14.4358 17.8535 11.8367 17.8535V20.6401C14.9049 20.6401 17.4717 19.8401 19.3083 18.0324L17.3509 16.0472ZM11.8367 17.8535H7.95437V20.6401H11.8367V17.8535ZM6.55984 19.2468V27.6067H9.34889V19.2468H6.55984Z" fill="#242420"/>
<path d="M37.8905 8.52764C37.0862 7.91792 36.2819 7.47236 35.4776 7.19095C34.6732 6.8861 33.8941 6.73367 33.14 6.73367C32.1849 6.73367 31.4057 6.94472 30.8025 7.36683C30.1993 7.78895 29.8977 8.34003 29.8977 9.0201C29.8977 9.48911 30.0485 9.87605 30.3501 10.1809C30.6517 10.4858 31.0413 10.7554 31.5189 10.9899C32.0215 11.201 32.5745 11.3886 33.1777 11.5528C33.8061 11.7169 34.4219 11.8928 35.0251 12.0804C37.4381 12.8308 39.1975 13.8392 40.3034 15.1055C41.4345 16.3484 42 17.9782 42 19.995C42 21.3551 41.7487 22.5863 41.246 23.6884C40.7684 24.7906 40.0521 25.7404 39.0969 26.5377C38.167 27.3116 37.0108 27.9095 35.6284 28.3317C34.2711 28.7772 32.7253 29 30.991 29C27.3968 29 24.0664 28.0034 21 26.0101L24.167 20.4523C25.2729 21.3668 26.3662 22.0469 27.447 22.4925C28.5278 22.938 29.5961 23.1608 30.6517 23.1608C31.8582 23.1608 32.7504 22.9028 33.3285 22.3869C33.9318 21.871 34.2334 21.2848 34.2334 20.6281C34.2334 20.2295 34.158 19.8894 34.0072 19.608C33.8564 19.3032 33.605 19.0335 33.2531 18.799C32.9013 18.541 32.4363 18.3065 31.8582 18.0955C31.3052 17.8844 30.6266 17.6499 29.8223 17.392C28.8671 17.1106 27.9246 16.8057 26.9946 16.4774C26.0898 16.1256 25.2729 15.6683 24.544 15.1055C23.8402 14.5427 23.2621 13.8392 22.8097 12.995C22.3824 12.1273 22.1688 11.0369 22.1688 9.72362C22.1688 8.41039 22.395 7.22613 22.8474 6.17085C23.325 5.09213 23.9785 4.17755 24.8079 3.42714C25.6625 2.65327 26.693 2.05528 27.8995 1.63317C29.1311 1.21105 30.5009 1 32.009 1C33.4165 1 34.8869 1.1876 36.4201 1.56281C37.9533 1.91457 39.4237 2.44221 40.8312 3.14573L37.8905 8.52764Z" fill="#242420"/>
<path d="M36.9224 8.72252L36.0369 9.82577L37.3846 10.9344L38.1734 9.36818L36.9224 8.72252ZM34.7655 7.42608L34.237 8.74313L34.2547 8.75038L34.2725 8.75706L34.7655 7.42608ZM31.2269 11.1107L30.573 12.3686L30.6113 12.3891L30.6508 12.407L31.2269 11.1107ZM32.7098 11.6566L32.3166 13.0214L32.3312 13.0255L32.7098 11.6566ZM39.0792 15.1024L37.9907 16.0003L37.9997 16.0114L38.0088 16.0224L39.0792 15.1024ZM39.9218 23.4268L38.6298 22.8702L38.6247 22.8821L38.6199 22.894L39.9218 23.4268ZM38.0008 26.1903L38.9355 27.2512L38.9371 27.2496L38.0008 26.1903ZM34.9003 27.9303L34.4636 26.5792L34.4489 26.5841L34.4343 26.5893L34.9003 27.9303ZM21.8243 25.6785L20.5846 25.0113L20 26.1243L21.0217 26.8449L21.8243 25.6785ZM24.6552 20.2881L25.5866 19.2244L24.2524 18.027L23.4155 19.6208L24.6552 20.2881ZM32.8446 22.1645L31.8957 21.1166L31.8848 21.1268L31.874 21.1373L32.8446 22.1645ZM33.4512 19.4693L32.1763 20.0651L32.1854 20.0851L32.1953 20.105L33.4512 19.4693ZM32.7772 18.6846L31.9096 19.8024L31.9349 19.8224L31.961 19.8413L32.7772 18.6846ZM31.5302 18.0023L30.9986 19.3179L31.0086 19.322L31.0185 19.326L31.5302 18.0023ZM29.7104 17.3199L30.1669 15.9756L30.1502 15.9698L30.1333 15.9644L29.7104 17.3199ZM27.1828 16.4329L26.6427 17.7451L26.6642 17.7541L26.6859 17.7625L27.1828 16.4329ZM24.9922 15.1024L24.0784 16.1817L24.0876 16.1897L24.0971 16.1975L24.9922 15.1024ZM23.442 13.0553L22.166 13.6488L22.1757 13.6702L22.1861 13.6911L23.442 13.0553ZM23.4757 6.43669L22.1778 5.89398L22.1719 5.90875L23.4757 6.43669ZM27.9916 2.03563L27.5075 0.701256L27.4986 0.70461L27.9916 2.03563ZM35.608 1.9674L35.2518 3.34242L35.2623 3.34519L35.2727 3.34781L35.608 1.9674ZM39.5511 3.50265L40.8021 4.1483L41.4271 2.90736L40.2141 2.2496L39.5511 3.50265ZM37.8079 7.61927C36.9947 6.95029 36.1456 6.43175 35.2585 6.09506L34.2725 8.75706C34.8235 8.96631 35.4123 9.31203 36.0369 9.82577L37.8079 7.61927ZM35.2941 6.10907C34.4324 5.7547 33.5566 5.56103 32.6761 5.56103V8.40409C33.1437 8.40409 33.6608 8.50616 34.237 8.74313L35.2941 6.10907ZM32.6761 5.56103C31.6004 5.56103 30.5846 5.82129 29.7441 6.45944L31.4291 8.73389C31.6671 8.55321 32.0443 8.40409 32.6761 8.40409V5.56103ZM29.7441 6.45944C28.8656 7.12642 28.3736 8.07529 28.3736 9.20015H31.182C31.182 9.00583 31.2292 8.88571 31.4291 8.73389L29.7441 6.45944ZM28.3736 9.20015C28.3736 9.96223 28.6098 10.6972 29.1504 11.2902L31.214 9.36178C31.2046 9.3514 31.2018 9.346 31.1986 9.33704C31.1943 9.3251 31.182 9.28473 31.182 9.20015H28.3736ZM29.1504 11.2902C29.5489 11.7272 30.0338 12.0813 30.573 12.3686L31.881 9.85278C31.5663 9.68518 31.3548 9.51616 31.214 9.36178L29.1504 11.2902ZM30.6508 12.407C31.167 12.6422 31.7233 12.8462 32.3166 13.0214L33.1029 10.2919C32.6178 10.1486 32.1856 9.98853 31.8032 9.8144L30.6508 12.407ZM32.3312 13.0255C32.8715 13.1786 33.4001 13.3425 33.9171 13.5169L34.8053 10.8197C34.2437 10.6302 33.6715 10.4529 33.0885 10.2876L32.3312 13.0255ZM33.9171 13.5169C35.9293 14.196 37.2302 15.0556 37.9907 16.0003L40.1679 14.2044C38.9512 12.6927 37.1066 11.5963 34.8053 10.8197L33.9171 13.5169ZM38.0088 16.0224C38.7568 16.9142 39.1916 18.143 39.1916 19.8446H42C42 17.6341 41.4237 15.7014 40.1497 14.1823L38.0088 16.0224ZM39.1916 19.8446C39.1916 20.9983 38.9957 21.9995 38.6298 22.8702L41.2139 23.9835C41.7465 22.7162 42 21.3292 42 19.8446H39.1916ZM38.6199 22.894C38.2741 23.7603 37.7593 24.5017 37.0645 25.131L38.9371 27.2496C39.95 26.3323 40.7159 25.2313 41.2236 23.9596L38.6199 22.894ZM37.0662 25.1294C36.4014 25.7296 35.5458 26.2207 34.4636 26.5792L35.3372 29.2813C36.7264 28.821 37.9376 28.1522 38.9355 27.2512L37.0662 25.1294ZM34.4343 26.5893C33.398 26.9585 32.1783 27.1569 30.7551 27.1569V30C32.4326 30 33.9764 29.7663 35.3664 29.2712L34.4343 26.5893ZM30.7551 27.1569C27.8412 27.1569 25.1425 26.2864 22.6271 24.5122L21.0217 26.8449C23.9882 28.9373 27.2433 30 30.7551 30V27.1569ZM23.0643 26.3458L25.8951 20.9554L23.4155 19.6208L20.5846 25.0113L23.0643 26.3458ZM23.7238 21.3518C24.7949 22.3129 25.8926 23.0629 27.0198 23.5671L28.1548 20.9666C27.3498 20.6065 26.4928 20.0373 25.5866 19.2244L23.7238 21.3518ZM27.0198 23.5671C28.1431 24.0697 29.2907 24.3366 30.4518 24.3366V21.4936C29.7258 21.4936 28.9635 21.3284 28.1548 20.9666L27.0198 23.5671ZM30.4518 24.3366C31.7119 24.3366 32.9309 24.048 33.8152 23.1917L31.874 21.1373C31.7247 21.2817 31.3487 21.4936 30.4518 21.4936V24.3366ZM33.7934 23.2125C34.571 22.4908 35.0576 21.5599 35.0576 20.4587H32.2492C32.2492 20.6311 32.1965 20.8375 31.8957 21.1166L33.7934 23.2125ZM35.0576 20.4587C35.0576 19.9087 34.962 19.3495 34.7072 18.8336L32.1953 20.105C32.21 20.135 32.2492 20.2354 32.2492 20.4587H35.0576ZM34.7262 18.8735C34.4704 18.3125 34.0664 17.8699 33.5934 17.5279L31.961 19.8413C32.117 19.9542 32.1624 20.0348 32.1763 20.0651L34.7262 18.8735ZM33.6447 17.5669C33.1894 17.2047 32.6411 16.9158 32.0419 16.6785L31.0185 19.326C31.453 19.4982 31.7358 19.6642 31.9096 19.8024L33.6447 17.5669ZM32.062 16.6866C31.535 16.4683 30.9016 16.2313 30.1669 15.9756L29.2539 18.6643C29.9572 18.9089 30.537 19.1268 30.9986 19.3179L32.062 16.6866ZM30.1333 15.9644C29.3043 15.6994 28.4865 15.4124 27.6798 15.1033L26.6859 17.7625C27.5419 18.0903 28.4091 18.3946 29.2876 18.6755L30.1333 15.9644ZM27.7229 15.1207C27.0377 14.8317 26.4282 14.4601 25.8876 14.0072L24.0971 16.1975C24.8595 16.8363 25.7102 17.3518 26.6427 17.7451L27.7229 15.1207ZM25.9061 14.023C25.4316 13.6113 25.0264 13.0845 24.6981 12.4196L22.1861 13.6911C22.6665 14.6638 23.2947 15.5017 24.0784 16.1817L25.9061 14.023ZM24.718 12.4619C24.446 11.8625 24.2733 11.0236 24.2733 9.88249H21.4649C21.4649 11.2888 21.6741 12.5651 22.166 13.6488L24.718 12.4619ZM24.2733 9.88249C24.2733 8.76189 24.4509 7.79625 24.7795 6.96465L22.1719 5.90875C21.6916 7.12415 21.4649 8.4557 21.4649 9.88249H24.2733ZM24.7736 6.97944C25.1332 6.09789 25.6133 5.37764 26.2058 4.7961L24.2507 2.75507C23.3601 3.62918 22.6718 4.68298 22.1778 5.89398L24.7736 6.97944ZM26.2058 4.7961C26.8198 4.19275 27.5723 3.71301 28.4846 3.36666L27.4986 0.70461C26.2541 1.17706 25.1644 1.85729 24.2507 2.75507L26.2058 4.7961ZM28.4758 3.36998C29.4003 3.02617 30.458 2.84306 31.665 2.84306V0C30.1762 0 28.7847 0.226265 27.5075 0.701256L28.4758 3.36998ZM31.665 2.84306C32.789 2.84306 33.9832 3.00557 35.2518 3.34242L35.9643 0.59238C34.492 0.201402 33.0574 0 31.665 0V2.84306ZM35.2727 3.34781C36.5279 3.66024 37.7322 4.12889 38.888 4.7557L40.2141 2.2496C38.8536 1.51174 37.4293 0.95689 35.9434 0.586993L35.2727 3.34781ZM38.3001 2.85701L35.6714 8.07686L38.1734 9.36818L40.8021 4.1483L38.3001 2.85701Z" fill="#242420"/>
</svg>
