<svg width="111" height="98" viewBox="0 0 111 98" fill="none" xmlns="http://www.w3.org/2000/svg">
<path fill-rule="evenodd" clip-rule="evenodd" d="M30.3558 15.7132C28.6218 14.1824 25.8106 14.1824 24.0767 15.7132C22.3427 17.2441 22.3427 19.7261 24.0767 21.2569L31.1481 27.5002C19.6102 35.4989 12.0571 45.9251 12.0571 45.9251C12.0571 45.9251 31.9357 73.3651 56.4572 73.3651C63.6966 73.3651 70.5316 70.9735 76.5695 67.6019L86.8677 76.694C88.6015 78.2251 91.4129 78.2251 93.1467 76.694C94.881 75.1632 94.881 72.6811 93.1467 71.1503L30.3558 15.7132ZM41.8755 36.9712L66.5986 58.7988C63.7233 60.5675 60.2272 61.6047 56.4572 61.6047C46.6484 61.6047 38.6971 54.5848 38.6971 45.9247C38.6971 42.5962 39.872 39.5096 41.8755 36.9712Z" fill="black"/>
<path d="M100.857 45.9251C100.857 45.9251 96.5775 51.833 89.5396 58.1657L46.3069 19.9962C49.5667 19.0417 52.9647 18.4851 56.4572 18.4851C80.9784 18.4851 100.857 45.9251 100.857 45.9251Z" fill="black"/>
</svg>
