<svg width="34" height="34" viewBox="0 0 34 34" fill="none" xmlns="http://www.w3.org/2000/svg">
<path d="M21.25 26.9166C21.2503 27.6315 20.9803 28.3199 20.4942 28.8441C20.0082 29.3682 19.342 29.6893 18.6292 29.7429L18.4167 29.75H15.5834C14.8685 29.7502 14.1801 29.4802 13.6559 28.9942C13.1318 28.5081 12.8107 27.8419 12.7571 27.1291L12.75 26.9166H21.25ZM17 2.83331C19.5713 2.83327 22.042 3.83191 23.891 5.61859C25.7401 7.40526 26.8229 9.84027 26.911 12.41L26.9167 12.75V18.0823L29.4979 23.2446C29.6105 23.4699 29.6669 23.7191 29.6622 23.9709C29.6574 24.2227 29.5918 24.4696 29.4707 24.6905C29.3497 24.9113 29.177 25.0996 28.9673 25.2391C28.7576 25.3786 28.5173 25.4652 28.2668 25.4915L28.1039 25.5H5.8962C5.64426 25.5001 5.39607 25.439 5.17288 25.3222C4.94969 25.2053 4.75816 25.0361 4.6147 24.829C4.47125 24.6219 4.38015 24.3831 4.3492 24.1331C4.31826 23.883 4.34839 23.6292 4.43703 23.3934L4.5022 23.2446L7.08336 18.0823V12.75C7.08336 10.1199 8.12815 7.59757 9.98789 5.73784C11.8476 3.8781 14.37 2.83331 17 2.83331Z" fill="black"/>
</svg>
